<svg width="42" height="66" fill="none" xmlns="http://www.w3.org/2000/svg">
  <path d="M10 6.5H4m9.5 0H38M21 33v-5m0 0c8.068-3.344 10.867-6.912 12.692-15.04.155-.693-.46-1.31-1.16-1.183-9.204 1.684-14.68 1.57-23.016.015-.712-.133-1.334.507-1.158 1.21C10.378 21.074 13.003 24.793 21 28Zm0 8v-.5m0 4.5v-.5m8 14 3.48 3.827c.583.643.128 1.673-.74 1.673H21m6-8.5c-1-1.5-2-3-3.5-4.5s-3-1.5-4.5 0c-1.147 1.147-6.972 8.141-9.65 11.37-.54.65-.073 1.63.773 1.63H21m0 0H4m17 0h17M4 6.5H2.5a1 1 0 0 1-1-1v-3a1 1 0 0 1 1-1h37a1 1 0 0 1 1 1v3a1 1 0 0 1-1 1H38m-34 0c-.569 13.159 2.442 18.47 11.585 25.197.258.19.415.493.415.813v.972c0 .325-.163.633-.427.823C4.911 41.987 4.263 48.043 4 59m0 0H2.5a1 1 0 0 0-1 1v3.5a1 1 0 0 0 1 1h37a1 1 0 0 0 1-1V60a1 1 0 0 0-1-1H38m0-52.5c.57 9.136 1.734 14.177-11.626 25.193a1.024 1.024 0 0 0-.374.781v.99c0 .335.173.65.45.838C37.106 41.508 39.12 47.196 38 59" stroke="#0A0312" stroke-width="2" stroke-linecap="round"/>
</svg>
