<svg width="66" height="64" fill="none" xmlns="http://www.w3.org/2000/svg">
  <path d="M1 52V22.195a1 1 0 0 1 1-1h2.097M10.807 18l-5.01 1.765a1 1 0 0 0-.668.943V56m51.613-37.5c1.07.206 2.457.745 3.554 1.236.353.157.575.51.575.897V56m.516-35H64a1 1 0 0 1 1 1v40a1 1 0 0 1-1 1H36.502a1 1 0 0 1-.696-.282l-.626-.606a1.002 1.002 0 0 0-.26-.182l-.681-.33a1 1 0 0 0-.436-.1h-1.606a1 1 0 0 0-.436.1l-.681.33a1.002 1.002 0 0 0-.26.182l-.626.606a1 1 0 0 1-.696.282H2a1 1 0 0 1-1-1v-6m55.742-33V12.993a.987.987 0 0 0-.995-.99C47.934 12.098 42.739 14.002 33 20m0 0v39m0-39C30.898 7.726 27.534 3.625 18.743 1.305a.982.982 0 0 0-1.227.956V38.2c0 .467.328.872.781.984C28.593 41.725 31.261 46.845 33 59m0 0H6.129a1 1 0 0 1-1-1v-2M33 59h26.871a1 1 0 0 0 1-1v-2M33 59c7.902-6.53 12.94-8.837 22.743-8.992.551-.008.999-.455.999-1.007V27.5M33 59c9.471-5.378 15.463-6.367 27.871-3M33 59c-9.202-5.457-15.268-6.203-27.871-3M33 59c-5.742-9.66-10.097-13.658-20.86-15.84a1.015 1.015 0 0 1-.817-.989V5.264c0-.645.604-1.125 1.227-.956 1.883.51 3.168 1.106 4.966 2.692" stroke="#0A0312" stroke-width="2" stroke-linecap="round"/>
</svg>
