<svg width="66" height="66" fill="none" xmlns="http://www.w3.org/2000/svg">
  <path d="m14.935 61.903-.322 1.933A1 1 0 0 0 15.6 65h34.858a1 1 0 0 0 .993-1.115L49.13 43.922a1 1 0 0 1 .993-1.115h1.458H17m-2.58 0H17m0 0-1.806 17.032m5.419-9.807h24.774m-24.774 4.645h24.774m-25.806 4.13h26.838M15.968 20.612V2a1 1 0 0 1 1-1h32.064a1 1 0 0 1 1 1v18.613m-36.645 27.87h-1.032c-.57 0-1.032-.461-1.032-1.031v-8.258c0-.57.462-1.033 1.032-1.033h41.29c.57 0 1.032.462 1.032 1.032v8.259c0 .57-.462 1.032-1.032 1.032h-1.032M13.59 55.71H5.13A4.13 4.13 0 0 1 1 51.58V26.84a4.129 4.129 0 0 1 4.163-4.128l55.742.456A4.13 4.13 0 0 1 65 27.298V51.58a4.13 4.13 0 0 1-4.129 4.129h-7.412M12.355 30.936a4.129 4.129 0 1 1-8.258 0 4.129 4.129 0 0 1 8.258 0Zm10.322 0a4.129 4.129 0 1 1-8.258 0 4.129 4.129 0 0 1 8.258 0Z" stroke="#0A0312" stroke-width="2" stroke-linecap="round" stroke-linejoin="round"/>
</svg>
